<svg width="38" height="38" viewBox="0 0 38 38" fill="none" xmlns="http://www.w3.org/2000/svg">
<circle opacity="0.2" cx="19" cy="19" r="19" fill="#007BFF"/>
<path d="M18.4991 26.1989C17.4764 26.1989 16.5673 26.0237 15.7718 25.6733C14.9811 25.3229 14.3561 24.8352 13.8968 24.2102C13.4376 23.5852 13.1937 22.8632 13.1653 22.044H15.8358C15.8594 22.437 15.9896 22.7803 16.2264 23.0739C16.4631 23.3627 16.778 23.5876 17.171 23.7486C17.564 23.9096 18.0043 23.9901 18.492 23.9901C19.0128 23.9901 19.4745 23.9001 19.877 23.7202C20.2794 23.5355 20.5943 23.2798 20.8216 22.9531C21.0488 22.6264 21.1601 22.25 21.1554 21.8239C21.1601 21.3835 21.0465 20.9953 20.8145 20.6591C20.5824 20.3229 20.2463 20.0601 19.8059 19.8707C19.3703 19.6813 18.8448 19.5866 18.2292 19.5866H16.9437V17.5554H18.2292C18.7359 17.5554 19.1786 17.4678 19.5574 17.2926C19.9409 17.1174 20.2415 16.8712 20.4593 16.554C20.6771 16.232 20.7837 15.8603 20.7789 15.4389C20.7837 15.027 20.6913 14.6695 20.502 14.3665C20.3173 14.0587 20.0545 13.8196 19.7136 13.6491C19.3774 13.4787 18.9821 13.3935 18.5275 13.3935C18.0824 13.3935 17.6705 13.474 17.2917 13.6349C16.9129 13.7959 16.6075 14.0256 16.3755 14.3239C16.1435 14.6174 16.0204 14.9678 16.0062 15.375H13.4707C13.4896 14.5606 13.724 13.8456 14.1738 13.2301C14.6284 12.6098 15.2344 12.1269 15.992 11.7812C16.7496 11.4309 17.5995 11.2557 18.5417 11.2557C19.5124 11.2557 20.3552 11.438 21.0701 11.8026C21.7898 12.1624 22.3462 12.6477 22.7392 13.2585C23.1322 13.8693 23.3287 14.544 23.3287 15.2827C23.3334 16.1018 23.0919 16.7884 22.6042 17.3423C22.1213 17.8963 21.4868 18.2585 20.7008 18.429V18.5426C21.7235 18.6847 22.5072 19.0634 23.0517 19.679C23.6009 20.2898 23.8732 21.0497 23.8684 21.9588C23.8684 22.7732 23.6364 23.5024 23.1724 24.1463C22.7131 24.7855 22.0787 25.2874 21.269 25.652C20.4641 26.0166 19.5408 26.1989 18.4991 26.1989Z" fill="#007BFF"/>
</svg>
