<svg width="44" height="45" viewBox="0 0 44 45" fill="none" xmlns="http://www.w3.org/2000/svg">
<rect y="0.5" width="44" height="44" rx="8" fill="white" fill-opacity="0.4"/>
<path d="M35.5023 22.5C35.5023 19.5858 29.4563 17.2238 21.9967 17.2238H20.4961" stroke="white" stroke-width="2.25" stroke-linecap="round" stroke-linejoin="round"/>
<path d="M21.4805 25.7504L23.5063 27.7762L21.4805 29.8021" stroke="white" stroke-width="2.25" stroke-linecap="round" stroke-linejoin="round"/>
<circle cx="21.9978" cy="22.5" r="13.5056" stroke="white" stroke-width="2.25" stroke-linecap="round" stroke-linejoin="round"/>
<path d="M26.9078 27.4111C31.9358 26.6431 35.5023 24.7365 35.5023 22.5C35.5023 19.5858 29.4563 17.2238 21.9967 17.2238H20.4961" stroke="white" stroke-width="2.25" stroke-linecap="round" stroke-linejoin="round"/>
<path d="M17.0867 17.5889C12.0587 18.3569 8.49219 20.2635 8.49219 22.5C8.49219 25.4142 14.5382 27.7762 21.9978 27.7762H23.5059" stroke="white" stroke-width="2.25" stroke-linecap="round" stroke-linejoin="round"/>
<path d="M22 36.0056C24.9142 36.0056 27.2762 29.9596 27.2762 22.5V20.9919" stroke="white" stroke-width="2.25" stroke-linecap="round" stroke-linejoin="round"/>
<path d="M21.9989 8.99438C19.0846 8.99438 16.7227 15.0404 16.7227 22.5V24.0006" stroke="white" stroke-width="2.25" stroke-linecap="round" stroke-linejoin="round"/>
<path d="M22 8.99438C24.2365 8.99438 26.1431 12.5609 26.9111 17.5889" stroke="white" stroke-width="2.25" stroke-linecap="round" stroke-linejoin="round"/>
<path d="M21.997 36.0056C19.7606 36.0056 17.8539 32.4391 17.0859 27.4111" stroke="white" stroke-width="2.25" stroke-linecap="round" stroke-linejoin="round"/>
</svg>
