<svg width="44" height="45" viewBox="0 0 44 45" fill="none" xmlns="http://www.w3.org/2000/svg">
<rect y="0.5" width="44" height="44" rx="8" fill="white" fill-opacity="0.4"/>
<path d="M8.98047 20.2319V16.1183C8.98047 15.593 9.26526 15.109 9.72445 14.8539L13.3198 12.8565" stroke="white" stroke-width="2.25" stroke-linecap="round" stroke-linejoin="round"/>
<path d="M26.335 34.5533L22.6971 36.574C22.2602 36.8166 21.7289 36.8166 21.2921 36.5738L17.6562 34.5533" stroke="white" stroke-width="2.25" stroke-linecap="round" stroke-linejoin="round"/>
<path d="M35.0151 24.768V28.8797C35.0151 29.4049 34.7306 29.8887 34.2716 30.1439L30.6758 32.1434" stroke="white" stroke-width="2.25" stroke-linecap="round" stroke-linejoin="round"/>
<path d="M17.6562 10.4467L21.2942 8.42602C21.7311 8.18334 22.2623 8.1834 22.6991 8.42617L26.335 10.4467" stroke="white" stroke-width="2.25" stroke-linecap="round" stroke-linejoin="round"/>
<path d="M21.9964 8.24524V12.3748" stroke="white" stroke-width="2.25" stroke-linecap="round" stroke-linejoin="round"/>
<path d="M21.9964 32.6252V36.7559" stroke="white" stroke-width="2.25" stroke-linecap="round" stroke-linejoin="round"/>
<path d="M9.18164 15.387L12.7698 17.3651" stroke="white" stroke-width="2.25" stroke-linecap="round" stroke-linejoin="round"/>
<path d="M31.2266 27.6349L34.8155 29.6134" stroke="white" stroke-width="2.25" stroke-linecap="round" stroke-linejoin="round"/>
<path d="M35.0151 20.2319V16.1202C35.0151 15.5951 34.7306 15.1113 34.2716 14.8561L30.6758 12.8565" stroke="white" stroke-width="2.25" stroke-linecap="round" stroke-linejoin="round"/>
<path d="M8.98047 24.768V28.8797C8.98047 29.4049 9.26505 29.8887 9.72397 30.1439L13.3198 32.1434" stroke="white" stroke-width="2.25" stroke-linecap="round" stroke-linejoin="round"/>
<path d="M34.8136 15.3876L31.2266 17.3651" stroke="white" stroke-width="2.25" stroke-linecap="round" stroke-linejoin="round"/>
<path fill-rule="evenodd" clip-rule="evenodd" d="M21.3231 28.3236L17.2487 25.9953C16.8256 25.7535 16.5645 25.3035 16.5645 24.8161V20.1839C16.5645 19.6965 16.8256 19.2465 17.2487 19.0047L21.3231 16.6765C21.7407 16.4378 22.2532 16.4378 22.6708 16.6765L26.7452 19.0047C27.1683 19.2465 27.4295 19.6965 27.4295 20.1839V24.8161C27.4295 25.3035 27.1683 25.7535 26.7452 25.9953L22.6707 28.3236C22.2532 28.5621 21.7406 28.5621 21.3231 28.3236V28.3236Z" stroke="white" stroke-width="2.25" stroke-linecap="round" stroke-linejoin="round"/>
<path d="M16.752 19.5023L21.9981 22.5" stroke="white" stroke-width="2.25" stroke-linecap="round" stroke-linejoin="round"/>
<path d="M27.2461 19.5023L22 22.5" stroke="white" stroke-width="2.25" stroke-linecap="round" stroke-linejoin="round"/>
<path d="M21.9964 22.5V28.5004" stroke="white" stroke-width="2.25" stroke-linecap="round" stroke-linejoin="round"/>
<path d="M12.7689 27.6349L9.17969 29.6136" stroke="white" stroke-width="2.25" stroke-linecap="round" stroke-linejoin="round"/>
</svg>
