<svg width="160" height="21" viewBox="0 0 160 21" fill="none" xmlns="http://www.w3.org/2000/svg">
<path d="M7.67255 16.3929C6.06933 16.3929 4.69514 16.0334 3.54999 15.3144C2.40483 14.5954 1.52688 13.6176 0.916126 12.3809C0.305375 11.1443 0 9.74944 0 8.19643C0 6.62425 0.314918 5.21983 0.944755 3.98318C1.58413 2.74652 2.48117 1.7735 3.63587 1.0641C4.79057 0.3547 6.15522 0 7.72981 0C9.55252 0 11.0794 0.464944 12.3104 1.39483C13.551 2.31513 14.3431 3.57575 14.6866 5.17669L10.7931 6.21203C10.5641 5.40677 10.1633 4.77885 9.59069 4.32829C9.02766 3.87773 8.38828 3.65244 7.67255 3.65244C6.85186 3.65244 6.17908 3.85376 5.65421 4.25639C5.12935 4.64944 4.74286 5.19107 4.49474 5.8813C4.24662 6.56194 4.12257 7.33365 4.12257 8.19643C4.12257 9.54812 4.4184 10.6458 5.01006 11.4894C5.61127 12.3234 6.49877 12.7404 7.67255 12.7404C8.55051 12.7404 9.21852 12.5391 9.67658 12.1365C10.1346 11.7338 10.4782 11.1586 10.7072 10.4109L14.6866 11.2449C14.2477 12.8938 13.4174 14.164 12.1959 15.0555C10.9744 15.9471 9.46663 16.3929 7.67255 16.3929Z" fill="white"/>
<path d="M20.0564 15.9615V3.88252H14.9891V0.43139H29.0172V3.88252H23.9499V15.9615H20.0564Z" fill="white"/>
<path d="M38.0524 16.3929C36.516 16.3929 35.2324 16.0334 34.2018 15.3144C33.1711 14.5954 32.3934 13.6176 31.8685 12.3809C31.3532 11.1443 31.0955 9.74944 31.0955 8.19643C31.0955 6.64342 31.3532 5.24859 31.8685 4.01194C32.3838 2.77528 33.1425 1.79746 34.1445 1.07848C35.1465 0.359492 36.3824 0 37.852 0C39.3311 0 40.6194 0.3547 41.7169 1.0641C42.8143 1.7735 43.6636 2.74652 44.2649 3.98318C44.8756 5.21024 45.181 6.61466 45.181 8.19643C45.181 9.74944 44.8804 11.1443 44.2792 12.3809C43.6875 13.6176 42.8573 14.5954 41.7884 15.3144C40.7196 16.0334 39.4743 16.3929 38.0524 16.3929ZM30.4371 20.4511V0.43139H33.8726V11.0724H34.3592V20.4511H30.4371ZM37.4225 12.913C38.2623 12.913 38.9494 12.7021 39.4838 12.2803C40.0182 11.8585 40.4143 11.2929 40.6719 10.5835C40.9296 9.86447 41.0584 9.0688 41.0584 8.19643C41.0584 7.33365 40.9248 6.54756 40.6576 5.83816C40.3904 5.11917 39.9753 4.54878 39.4122 4.12697C38.8588 3.69558 38.1478 3.47989 37.2794 3.47989C36.4682 3.47989 35.8098 3.67641 35.304 4.06946C34.8078 4.4625 34.4451 5.01372 34.2161 5.72312C33.9871 6.43252 33.8726 7.25695 33.8726 8.19643C33.8726 9.1359 33.9871 9.96034 34.2161 10.6697C34.4451 11.3791 34.8173 11.9304 35.3326 12.3234C35.8575 12.7164 36.5541 12.913 37.4225 12.913Z" fill="white"/>
<path d="M60.8289 0.43139V15.9615H57.1072V6.47086L50.1217 15.9615H47.0298V0.43139H50.7516V9.60564L57.7657 0.43139H60.8289Z" fill="white"/>
<path d="M63.5387 15.9615V0.43139H66.6878L72.0701 10.4972L77.4523 0.43139H80.6015V15.9615H76.8797V8.22519L72.7572 15.9615H71.383L67.2604 8.22519V15.9615H63.5387Z" fill="white"/>
<path d="M84.2109 15.9615V0.43139H97.9204V15.9615H94.0522V4.08383H88.0792V15.9615H84.2109Z" fill="#FB5801"/>
<path d="M104.907 16.3929C103.808 16.3929 102.874 16.182 102.106 15.7602C101.347 15.3288 100.769 14.7584 100.371 14.049C99.982 13.33 99.7877 12.5391 99.7877 11.6763C99.7877 10.9573 99.8967 10.3007 100.115 9.7063C100.333 9.11194 100.684 8.58947 101.167 8.13891C101.66 7.67876 102.319 7.2953 103.144 6.98853C103.713 6.77763 104.391 6.5907 105.178 6.42773C105.965 6.26476 106.856 6.11137 107.851 5.96758C108.847 5.81419 109.942 5.64643 111.136 5.46429L109.743 6.24079C109.743 5.32049 109.525 4.64464 109.088 4.21325C108.652 3.78186 107.922 3.56617 106.898 3.56617C106.33 3.56617 105.737 3.70517 105.121 3.98318C104.504 4.26118 104.073 4.75489 103.827 5.46429L100.328 4.34267C100.717 3.05808 101.447 2.01316 102.518 1.20789C103.59 0.402631 105.05 0 106.898 0C108.254 0 109.458 0.210902 110.511 0.632705C111.563 1.05451 112.359 1.78308 112.9 2.81842C113.203 3.39361 113.383 3.9688 113.44 4.54399C113.497 5.11917 113.526 5.76147 113.526 6.47086V15.9615H110.141V12.7692L110.624 13.4306C109.875 14.4756 109.065 15.2329 108.193 15.7026C107.33 16.1628 106.235 16.3929 104.907 16.3929ZM105.732 13.3156C106.443 13.3156 107.041 13.191 107.524 12.9417C108.017 12.6829 108.406 12.3905 108.69 12.0646C108.984 11.7386 109.183 11.4654 109.288 11.2449C109.487 10.8231 109.6 10.3342 109.629 9.7782C109.667 9.21259 109.686 8.74286 109.686 8.36898L110.823 8.65658C109.676 8.84831 108.747 9.01128 108.036 9.14549C107.325 9.27011 106.751 9.38515 106.315 9.4906C105.879 9.59605 105.495 9.71109 105.163 9.83572C104.784 9.9891 104.476 10.1569 104.239 10.339C104.011 10.5116 103.841 10.7033 103.727 10.9142C103.623 11.1251 103.571 11.36 103.571 11.6188C103.571 11.9735 103.656 12.2803 103.827 12.5391C104.007 12.7883 104.258 12.9801 104.58 13.1143C104.903 13.2485 105.287 13.3156 105.732 13.3156Z" fill="#FB5801"/>
<path d="M123.497 16.3929C121.97 16.3929 120.695 16.0334 119.671 15.3144C118.647 14.5954 117.874 13.6176 117.353 12.3809C116.841 11.1443 116.585 9.74944 116.585 8.19643C116.585 6.64342 116.841 5.24859 117.353 4.01194C117.865 2.77528 118.619 1.79746 119.614 1.07848C120.61 0.359492 121.837 0 123.298 0C124.767 0 126.047 0.3547 127.137 1.0641C128.228 1.7735 129.071 2.74652 129.669 3.98318C130.275 5.21024 130.579 6.61466 130.579 8.19643C130.579 9.74944 130.28 11.1443 129.683 12.3809C129.095 13.6176 128.27 14.5954 127.208 15.3144C126.147 16.0334 124.909 16.3929 123.497 16.3929ZM115.931 20.4511V0.43139H119.344V11.0724H119.827V20.4511H115.931ZM122.871 12.913C123.705 12.913 124.388 12.7021 124.919 12.2803C125.45 11.8585 125.843 11.2929 126.099 10.5835C126.355 9.86447 126.483 9.0688 126.483 8.19643C126.483 7.33365 126.35 6.54756 126.085 5.83816C125.819 5.11917 125.407 4.54878 124.848 4.12697C124.298 3.69558 123.591 3.47989 122.729 3.47989C121.923 3.47989 121.269 3.67641 120.766 4.06946C120.273 4.4625 119.913 5.01372 119.685 5.72312C119.458 6.43252 119.344 7.25695 119.344 8.19643C119.344 9.1359 119.458 9.96034 119.685 10.6697C119.913 11.3791 120.283 11.9304 120.795 12.3234C121.316 12.7164 122.008 12.913 122.871 12.913Z" fill="#FB5801"/>
<path d="M136.199 15.9615V3.88252H131.164V0.43139H145.101V3.88252H140.067V15.9615H136.199Z" fill="#FB5801"/>
<path d="M153.032 16.3929C151.439 16.3929 150.074 16.0334 148.936 15.3144C147.798 14.5954 146.926 13.6176 146.319 12.3809C145.713 11.1443 145.409 9.74944 145.409 8.19643C145.409 6.62425 145.722 5.21983 146.348 3.98318C146.983 2.74652 147.874 1.7735 149.021 1.0641C150.169 0.3547 151.524 0 153.089 0C154.9 0 156.417 0.464944 157.64 1.39483C158.872 2.31513 159.659 3.57575 160 5.17669L156.132 6.21203C155.905 5.40677 155.506 4.77885 154.938 4.32829C154.378 3.87773 153.743 3.65244 153.032 3.65244C152.217 3.65244 151.548 3.85376 151.027 4.25639C150.505 4.64944 150.121 5.19107 149.875 5.8813C149.628 6.56194 149.505 7.33365 149.505 8.19643C149.505 9.54812 149.799 10.6458 150.387 11.4894C150.984 12.3234 151.866 12.7404 153.032 12.7404C153.904 12.7404 154.568 12.5391 155.023 12.1365C155.478 11.7338 155.819 11.1586 156.047 10.4109L160 11.2449C159.564 12.8938 158.739 14.164 157.526 15.0555C156.312 15.9471 154.814 16.3929 153.032 16.3929Z" fill="#FB5801"/>
</svg>
