<svg xmlns="http://www.w3.org/2000/svg" xmlns:xlink="http://www.w3.org/1999/xlink"
	 viewBox="0 0 338.6 91.5" enable-background="new 0 0 338.6 91.5" xml:space="preserve">
<g>
	<g>
		<g>
			<path fill="#FFFFFF" d="M126.9,57.1c-2.9,2.2-6.1,3.3-9.6,3.3c-2.5,0-4.7-0.5-6.7-1.6c-2-1.1-3.5-2.6-4.7-4.5s-1.7-4-1.7-6.4
				c0-2.3,0.5-4.3,1.6-6.1c1-1.8,2.5-3.2,4.3-4.2c1.8-1,3.9-1.5,6.2-1.5c2.4,0,4.5,0.6,6.3,1.7c1.8,1.1,3.2,2.7,4.2,4.7
				c1,2,1.5,4.3,1.5,7v0.8h-18.8c0.3,1.2,0.8,2.3,1.6,3.2s1.8,1.6,2.9,2.1s2.5,0.8,3.9,0.8c2.6,0,5-0.8,7.2-2.5L126.9,57.1z
				 M109.3,46.8h14.6c-0.2-1.3-0.6-2.5-1.2-3.4c-0.7-1-1.5-1.7-2.5-2.3c-1-0.6-2.2-0.8-3.5-0.8c-1.3,0-2.5,0.3-3.5,0.8
				c-1,0.6-1.9,1.3-2.5,2.3C109.8,44.3,109.4,45.5,109.3,46.8z"/>
			<path fill="#FFFFFF" d="M138,59.9h-5.1V23.8h5.1V59.9z"/>
			<path fill="#FFFFFF" d="M165.2,57.1c-2.9,2.2-6.1,3.3-9.6,3.3c-2.5,0-4.7-0.5-6.7-1.6c-2-1.1-3.5-2.6-4.7-4.5
				c-1.1-1.9-1.7-4-1.7-6.4c0-2.3,0.5-4.3,1.6-6.1c1-1.8,2.5-3.2,4.3-4.2c1.8-1,3.9-1.5,6.2-1.5c2.4,0,4.5,0.6,6.3,1.7
				c1.8,1.1,3.2,2.7,4.2,4.7c1,2,1.5,4.3,1.5,7v0.8h-18.8c0.3,1.2,0.8,2.3,1.6,3.2c0.8,0.9,1.8,1.6,2.9,2.1c1.2,0.5,2.5,0.8,3.9,0.8
				c2.6,0,5-0.8,7.2-2.5L165.2,57.1z M147.5,46.8h14.6c-0.2-1.3-0.6-2.5-1.2-3.4s-1.5-1.7-2.5-2.3s-2.2-0.8-3.5-0.8
				c-1.3,0-2.5,0.3-3.5,0.8c-1,0.6-1.9,1.3-2.5,2.3C148.1,44.3,147.6,45.5,147.5,46.8z"/>
			<path fill="#FFFFFF" d="M191,56.4c-1.1,1.3-2.5,2.2-4.1,2.9c-1.6,0.7-3.3,1-5.2,1c-2.3,0-4.5-0.5-6.3-1.6s-3.3-2.5-4.4-4.4
				s-1.6-3.9-1.6-6.2c0-2.3,0.5-4.4,1.6-6.2c1.1-1.8,2.6-3.3,4.4-4.4c1.9-1.1,4-1.6,6.3-1.6c1.8,0,3.6,0.3,5.2,1
				c1.6,0.7,3,1.7,4.1,2.9l-2.8,3c-0.8-0.8-1.7-1.4-2.8-1.9c-1.1-0.4-2.2-0.7-3.4-0.7c-1.5,0-2.8,0.3-4,1c-1.2,0.7-2.1,1.6-2.7,2.8
				c-0.7,1.2-1,2.5-1,4c0,1.5,0.3,2.9,1,4.1c0.7,1.2,1.6,2.1,2.7,2.8c1.2,0.7,2.5,1,4,1c1.2,0,2.3-0.2,3.4-0.7
				c1.1-0.5,2-1.1,2.7-1.9L191,56.4z"/>
			<path fill="#FFFFFF" d="M209.8,59.3c-1.6,0.7-3.2,1.1-4.8,1.1s-2.9-0.3-4-1c-1.1-0.7-2-1.6-2.7-2.8c-0.6-1.2-1-2.6-1-4.1V40.7
				h-4.1v-4.3h4.3v-5.9h4.6v5.9h6.8v4.3h-6.8v10.8c0,1.4,0.4,2.5,1.1,3.3c0.7,0.8,1.7,1.2,2.9,1.2c1,0,2-0.3,2.9-0.9L209.8,59.3z"/>
			<path fill="#FFFFFF" d="M218.2,59.9h-4.8V36.4h4.2l0.2,4.5c0.8-1.5,1.9-2.8,3.4-3.6c1.4-0.9,3.1-1.3,4.9-1.3c0.5,0,0.9,0,1.4,0.1
				c0.5,0.1,0.9,0.1,1.4,0.2l-0.6,4.3c-0.9-0.2-1.8-0.4-2.7-0.4c-1.5,0-2.7,0.3-3.8,1c-1.1,0.7-2,1.7-2.6,2.9
				c-0.6,1.2-0.9,2.6-0.9,4.2V59.9z"/>
			<path fill="#FFFFFF" d="M242.4,60.4c-2.3,0-4.5-0.5-6.3-1.6c-1.9-1.1-3.4-2.5-4.4-4.4c-1.1-1.8-1.6-3.9-1.6-6.3
				c0-2.3,0.5-4.4,1.6-6.2c1.1-1.8,2.6-3.3,4.4-4.4c1.9-1.1,4-1.6,6.3-1.6c2.4,0,4.5,0.5,6.3,1.6c1.9,1.1,3.3,2.5,4.4,4.4
				c1.1,1.8,1.6,3.9,1.6,6.2c0,2.3-0.5,4.4-1.6,6.3c-1.1,1.8-2.5,3.3-4.4,4.4S244.7,60.4,242.4,60.4z M242.3,56c1.4,0,2.7-0.3,3.8-1
				c1.1-0.7,2-1.6,2.7-2.8c0.6-1.2,1-2.5,1-4c0-1.5-0.3-2.8-1-4c-0.7-1.2-1.5-2.1-2.7-2.8c-1.1-0.7-2.4-1-3.8-1
				c-1.4,0-2.7,0.3-3.8,1c-1.1,0.7-2,1.6-2.7,2.8c-0.6,1.2-1,2.5-1,4c0,1.5,0.3,2.9,1,4c0.6,1.2,1.5,2.1,2.7,2.8
				C239.7,55.7,240.9,56,242.3,56z"/>
			<path fill="#FFFFFF" d="M281.7,59.9h-4.8V47.2c0-2.1-0.6-3.7-1.7-5c-1.1-1.2-2.7-1.9-4.6-1.9c-2,0-3.6,0.7-4.8,2
				c-1.2,1.3-1.8,3.1-1.8,5.2v12.4h-4.8V36.4h4.1l0.2,3.8c0.9-1.4,2-2.4,3.4-3.2s3-1.1,4.9-1.1c3.1,0,5.5,0.9,7.3,2.8
				c1.8,1.9,2.7,4.4,2.7,7.7V59.9z"/>
			<path fill="#FFFFFF" d="M290,29.6c-0.7,0-1.4-0.3-1.9-0.8c-0.5-0.5-0.8-1.1-0.8-1.9c0-0.7,0.2-1.4,0.8-1.9
				c0.5-0.5,1.1-0.8,1.9-0.8c0.8,0,1.4,0.3,1.9,0.8c0.5,0.5,0.8,1.1,0.8,1.9c0,0.7-0.3,1.4-0.8,1.9C291.4,29.4,290.7,29.6,290,29.6z
				 M292.4,59.9h-4.8V36.4h4.8V59.9z"/>
			<path fill="#FFFFFF" d="M318.6,56.4c-1.1,1.3-2.5,2.2-4.1,2.9c-1.6,0.7-3.3,1-5.2,1c-2.3,0-4.5-0.5-6.3-1.6s-3.3-2.5-4.4-4.4
				c-1.1-1.8-1.6-3.9-1.6-6.2c0-2.3,0.5-4.4,1.6-6.2c1.1-1.8,2.6-3.3,4.4-4.4c1.9-1.1,4-1.6,6.3-1.6c1.8,0,3.6,0.3,5.2,1
				c1.6,0.7,3,1.7,4.1,2.9l-2.8,3c-0.8-0.8-1.7-1.4-2.8-1.9c-1.1-0.4-2.2-0.7-3.4-0.7c-1.5,0-2.8,0.3-4,1c-1.2,0.7-2.1,1.6-2.7,2.8
				c-0.7,1.2-1,2.5-1,4c0,1.5,0.3,2.9,1,4.1c0.7,1.2,1.6,2.1,2.7,2.8c1.2,0.7,2.5,1,4,1c1.2,0,2.3-0.2,3.4-0.7
				c1.1-0.5,2-1.1,2.7-1.9L318.6,56.4z"/>
			<path fill="#FFFFFF" d="M321.5,57.8l1.2-4.3c0.5,0.5,1.2,1,1.9,1.4c0.7,0.4,1.5,0.7,2.4,1c0.8,0.2,1.7,0.3,2.5,0.3
				c1.3,0,2.3-0.3,3.1-0.8c0.8-0.5,1.2-1.3,1.2-2.2c0-0.7-0.2-1.2-0.6-1.7c-0.4-0.4-1-0.8-1.7-1.2c-0.7-0.3-1.5-0.6-2.3-1
				c-1-0.4-2.1-0.8-3.1-1.4c-1-0.5-1.9-1.2-2.6-2.1c-0.7-0.9-1.1-2-1.1-3.4c0-1.3,0.3-2.5,1-3.5c0.7-1,1.7-1.8,2.9-2.3
				c1.2-0.5,2.7-0.8,4.3-0.8c2.5,0,5,0.6,7.4,1.9l-1.4,4.1c-0.5-0.4-1.1-0.7-1.8-1s-1.4-0.5-2.1-0.7c-0.7-0.2-1.4-0.2-2-0.2
				c-1,0-1.8,0.2-2.5,0.7s-0.9,1.1-0.9,1.8c0,0.5,0.1,0.9,0.4,1.3c0.3,0.4,0.8,0.8,1.4,1.1c0.6,0.4,1.5,0.8,2.6,1.2
				c1.1,0.4,2.1,0.9,3.2,1.5c1.1,0.5,1.9,1.3,2.7,2.1c0.7,0.9,1.1,2,1.1,3.4c0,1.4-0.4,2.6-1.1,3.7s-1.8,1.9-3.1,2.5
				c-1.3,0.6-2.9,0.9-4.7,0.9C326.8,60.4,324,59.5,321.5,57.8z"/>
		</g>
	</g>
	<g>
		<circle fill="#0087EF" cx="45.8" cy="45.8" r="45.8"/>
		<g>
			<path fill="#FFFFFF" d="M34.2,59.9h-5.5l-6.2-10.6h-5.3v10.6h-5V31.7h10.4c2.2,0,4.1,0.4,5.6,1.1c1.6,0.7,2.7,1.7,3.6,3
				c0.8,1.3,1.3,2.9,1.3,4.7c0,2-0.5,3.6-1.4,5c-1,1.4-2.3,2.3-4.1,3L34.2,59.9z M17.2,45.2h5.1c1.8,0,3.2-0.4,4.2-1.2
				c1-0.8,1.5-1.9,1.5-3.4c0-1.5-0.5-2.6-1.5-3.4c-1-0.8-2.4-1.2-4.2-1.2h-5.1V45.2z"/>
			<path fill="#FFFFFF" d="M37.8,53.5V38.1c0-3.5,2.8-6.4,6.4-6.4h11.7V36H44.7c-1.1,0-1.9,0.9-1.9,1.9v5.5h12.4v4.3H42.8v5.8
				c0,1.1,0.9,1.9,1.9,1.9h11.2v4.4H44.2C40.7,59.9,37.8,57,37.8,53.5z"/>
			<path fill="#FFFFFF" d="M60.8,59.9V31.7h9.3c2.4,0,4.4,0.4,6.1,1.1c1.7,0.8,3,1.8,3.9,3.2c0.9,1.4,1.4,3,1.4,5
				c0,1.9-0.5,3.6-1.4,5c-0.9,1.4-2.2,2.5-3.9,3.2c-1.7,0.8-3.7,1.1-6,1.1h-4.4v9.5H60.8z M65.8,46h3.9c2.2,0,3.8-0.4,5-1.3
				c1.2-0.9,1.7-2.1,1.7-3.7s-0.6-2.8-1.7-3.7c-1.2-0.9-2.8-1.3-5-1.3h-3.9V46z"/>
		</g>
	</g>
</g>
</svg>
