<svg width="36" height="36" viewBox="0 0 36 36" fill="none" xmlns="http://www.w3.org/2000/svg">
<path fill-rule="evenodd" clip-rule="evenodd" d="M16.2832 19.7161C14.5282 17.9611 13.2052 15.9961 12.3262 14.0026C12.1402 13.5811 12.2497 13.0876 12.5752 12.7621L13.8037 11.5351C14.8102 10.5286 14.8102 9.10505 13.9312 8.22605L12.1702 6.46505C10.9987 5.29355 9.09974 5.29355 7.92824 6.46505L6.95024 7.44305C5.83874 8.55455 5.37524 10.1581 5.67524 11.7481C6.41624 15.6676 8.69324 19.9591 12.3667 23.6326C16.0402 27.3061 20.3317 29.5831 24.2512 30.3241C25.8412 30.6241 27.4447 30.1606 28.5562 29.0491L29.5327 28.0726C30.7042 26.9011 30.7042 25.0021 29.5327 23.8306L27.7732 22.0711C26.8942 21.1921 25.4692 21.1921 24.5917 22.0711L23.2372 23.4271C22.9117 23.7526 22.4182 23.8621 21.9967 23.6761C20.0032 22.7956 18.0382 21.4711 16.2832 19.7161Z" stroke="#323232" stroke-width="2.25" stroke-linecap="round" stroke-linejoin="round"/>
</svg>
