<?xml version="1.0" encoding="utf-8"?>
<!-- Generator: Adobe Illustrator 18.0.0, SVG Export Plug-In . SVG Version: 6.00 Build 0)  -->
<!DOCTYPE svg PUBLIC "-//W3C//DTD SVG 1.1//EN" "http://www.w3.org/Graphics/SVG/1.1/DTD/svg11.dtd">
<svg version="1.1" id="Layer_1" xmlns="http://www.w3.org/2000/svg" xmlns:xlink="http://www.w3.org/1999/xlink" x="0px" y="0px"
	 viewBox="0 0 106 106" enable-background="new 0 0 106 106" xml:space="preserve">
<circle fill="#FFFFFF" cx="53" cy="53" r="53"/>
<g>
	<g>
		<path fill="#0087EF" d="M39.3,70.1h-6.5l-7.3-12.4h-6.3v12.4h-5.8V37h12.2c2.6,0,4.8,0.4,6.6,1.2c1.8,0.8,3.2,2,4.2,3.5
			c1,1.5,1.5,3.4,1.5,5.6c0,2.3-0.6,4.2-1.7,5.8c-1.1,1.6-2.7,2.8-4.8,3.5L39.3,70.1z M19.3,52.9h6c2.1,0,3.8-0.5,5-1.4
			c1.2-0.9,1.8-2.3,1.8-4c0-1.7-0.6-3-1.8-4c-1.2-0.9-2.8-1.4-5-1.4h-6V52.9z"/>
		<path fill="#0087EF" d="M43.5,62.6V44.5c0-4.1,3.3-7.5,7.5-7.5h13.7v5.1H51.6c-1.2,0-2.3,1-2.3,2.3v6.5H64V56H49.4v6.8
			c0,1.2,1,2.3,2.3,2.3h13.1v5.1H51C46.9,70.1,43.5,66.8,43.5,62.6z"/>
		<path fill="#0087EF" d="M70.6,70.1V37h10.9c2.8,0,5.1,0.4,7.1,1.3c2,0.9,3.5,2.1,4.6,3.8c1.1,1.6,1.6,3.6,1.6,5.8
			c0,2.3-0.5,4.2-1.6,5.8c-1.1,1.6-2.6,2.9-4.6,3.8c-2,0.9-4.4,1.3-7.1,1.3h-5.2v11.2H70.6z M76.4,53.9H81c2.5,0,4.5-0.5,5.9-1.6
			c1.4-1,2.1-2.5,2.1-4.3c0-1.9-0.7-3.3-2.1-4.3c-1.4-1-3.3-1.5-5.9-1.5h-4.6V53.9z"/>
	</g>
</g>
</svg>
