<svg width="64" height="64" viewBox="0 0 64 64" fill="none" xmlns="http://www.w3.org/2000/svg">
<rect width="64" height="64" rx="13.7143" fill="#FB5801"/>
<path d="M22.9982 18.4863C22.9247 18.4863 22.5917 18.5418 22.4822 18.5808C22.0922 18.7173 21.7982 18.9813 21.6392 19.3308L17.2757 28.0788C17.2757 28.0788 17.0087 28.4403 16.9982 28.9908C16.9877 29.5413 17.3927 29.9808 17.3927 29.9808L30.8267 46.4358C31.4267 47.1693 32.5697 47.1693 33.1697 46.4358C33.5882 45.9243 46.6562 29.9073 46.6562 29.9073C46.6562 29.9073 46.9892 29.4843 46.9982 28.9908C47.0087 28.4973 46.7462 28.1478 46.7462 28.1478L42.3572 19.3308C42.1982 18.9813 41.9042 18.7173 41.5142 18.5808C41.4047 18.5418 41.0732 18.4863 40.9982 18.4863H22.9982ZM25.1072 21.4878H38.8892L36.7802 27.4908H27.2177L25.1072 21.4878ZM22.7642 23.8323L24.0767 27.4908H20.9357L22.7642 23.8323ZM41.2322 23.8323L43.0607 27.4908H39.9197L41.2322 23.8323ZM21.6857 30.4908H25.1072L27.7322 37.9008L21.6857 30.4908ZM28.2947 30.4908H35.7017L31.9982 40.9967L28.2947 30.4908ZM38.8892 30.4908H42.3107C40.8737 32.2473 38.7887 34.8198 36.2642 37.9008L38.8892 30.4908Z" fill="white"/>
</svg>
