<svg width="64" height="64" viewBox="0 0 64 64" fill="none" xmlns="http://www.w3.org/2000/svg">
<rect width="64" height="64" rx="13.7143" fill="#007BFF"/>
<path d="M37.3331 18.1785C33.546 18.1785 30.476 21.249 30.476 25.0357C30.476 28.8223 33.546 31.8928 37.3331 31.8928C41.1203 31.8928 44.1903 28.8223 44.1903 25.0357C44.1903 21.249 41.1203 18.1785 37.3331 18.1785ZM25.9046 19.7023C22.5383 19.7023 19.8093 22.4315 19.8093 25.7976C19.8093 29.1637 22.5383 31.8928 25.9046 31.8928C27.1684 31.8928 28.3655 31.5073 29.3807 30.7972C30.0705 30.3157 30.2438 29.345 29.7616 28.6547C29.2795 27.9644 28.3562 27.8395 27.6664 28.321C27.1591 28.6761 26.5388 28.8452 25.9046 28.8452C24.2214 28.8452 22.857 27.4814 22.857 25.7976C22.857 24.1138 24.2214 22.75 25.9046 22.75C26.4016 22.75 26.8563 22.8597 27.2854 23.0837C28.0321 23.4722 28.9924 23.2102 29.3807 22.4635C29.7691 21.7184 29.4607 20.7568 28.7142 20.3697C27.8531 19.9217 26.8941 19.7023 25.9046 19.7023ZM37.3331 21.2261C39.4371 21.2261 41.1427 22.9313 41.1427 25.0357C41.1427 27.14 39.4371 28.8452 37.3331 28.8452C35.2292 28.8452 33.5236 27.14 33.5236 25.0357C33.5236 22.9313 35.2292 21.2261 37.3331 21.2261ZM21.4284 33.9408C18.6336 35.0943 16.7617 37.921 16.7617 41.0357V44.0833C16.7617 44.9244 17.4439 45.6071 18.2855 45.6071H24.3808C25.2224 45.6071 25.9046 44.9244 25.9046 44.0833C25.9046 43.2421 25.2224 42.5595 24.3808 42.5595H19.8093V41.0357C19.8093 39.3229 20.8253 37.7504 21.993 37.0585C23.0912 37.5218 24.2529 37.8723 25.2861 37.9591C26.1248 38.0307 26.881 37.3983 26.9522 36.5587C27.0234 35.7206 26.4173 35.0106 25.5788 34.9389C24.9098 34.8826 24.1787 34.6814 23.3331 34.3218C23.129 34.2349 23.0104 34.1663 22.6189 33.988C22.2351 33.8128 21.8182 33.7793 21.4284 33.9408ZM32.095 33.9408C29.3002 35.0943 27.4284 37.921 27.4284 41.0357V44.0833C27.4284 44.9244 28.1106 45.6071 28.9522 45.6071H45.7141C46.5557 45.6071 47.2379 44.9244 47.2379 44.0833V41.0357C47.2379 37.9941 45.3557 35.2361 42.5712 34.0353C42.1793 33.8661 41.7226 33.8616 41.3331 34.0353C39.9849 34.6402 38.6714 34.9404 37.3331 34.9404C35.9995 34.9404 34.6814 34.6235 33.2856 33.988C32.9018 33.8128 32.4848 33.7793 32.095 33.9408ZM32.681 37.0585C34.1206 37.6041 35.8564 37.988 37.3331 37.988C38.7983 37.988 40.4623 37.6299 41.8729 37.1088C43.2483 37.892 44.1903 39.3579 44.1903 41.0357V42.5595H30.476V41.0357C30.476 39.2604 31.4755 37.7641 32.681 37.0585Z" fill="white"/>
</svg>
