<svg width="38" height="38" viewBox="0 0 38 38" fill="none" xmlns="http://www.w3.org/2000/svg">
<circle opacity="0.2" cx="19" cy="19" r="19" fill="#007BFF"/>
<path d="M13.5817 26V24.0966L18.6314 19.1463C19.1143 18.6586 19.5168 18.2254 19.8388 17.8466C20.1607 17.4678 20.4022 17.1009 20.5632 16.7457C20.7242 16.3906 20.8047 16.0118 20.8047 15.6094C20.8047 15.1501 20.7005 14.7571 20.4922 14.4304C20.2839 14.099 19.9974 13.8433 19.6328 13.6634C19.2682 13.4834 18.8539 13.3935 18.3899 13.3935C17.9117 13.3935 17.4927 13.4929 17.1328 13.6918C16.773 13.8859 16.4936 14.1629 16.2947 14.5227C16.1006 14.8826 16.0036 15.3111 16.0036 15.8082H13.4964C13.4964 14.8849 13.7071 14.0824 14.1286 13.4006C14.55 12.7187 15.13 12.1908 15.8686 11.8168C16.612 11.4427 17.4643 11.2557 18.4254 11.2557C19.4008 11.2557 20.2578 11.438 20.9964 11.8026C21.7351 12.1671 22.308 12.6667 22.7152 13.3011C23.1271 13.9356 23.3331 14.66 23.3331 15.4744C23.3331 16.0189 23.2289 16.554 23.0206 17.0795C22.8123 17.6051 22.4453 18.1875 21.9197 18.8267C21.3989 19.4659 20.6674 20.2401 19.7251 21.1491L17.218 23.6989V23.7983H23.5533V26H13.5817Z" fill="#007BFF"/>
</svg>
