<?xml version="1.0" standalone="no"?>
<!DOCTYPE svg PUBLIC "-//W3C//DTD SVG 20010904//EN"
 "http://www.w3.org/TR/2001/REC-SVG-20010904/DTD/svg10.dtd">
<svg version="1.0" xmlns="http://www.w3.org/2000/svg"
 width="700.000000pt" height="700.000000pt" viewBox="0 0 700.000000 700.000000"
 preserveAspectRatio="xMidYMid meet">
<metadata>
Created by potrace 1.14, written by Peter Selinger 2001-2017
</metadata>
<g transform="translate(0.000000,700.000000) scale(0.100000,-0.100000)"
fill="#000000" stroke="none">
<path d="M3280 6994 c-19 -2 -84 -9 -145 -14 -578 -56 -1180 -283 -1660 -625
-237 -169 -531 -446 -709 -670 -416 -521 -673 -1147 -748 -1820 -17 -154 -17
-585 0 -730 69 -588 254 -1099 567 -1570 126 -189 242 -332 410 -504 580 -595
1295 -943 2140 -1043 145 -17 576 -17 730 0 822 91 1556 447 2131 1034 203
206 348 390 487 618 274 449 432 915 499 1465 16 135 16 591 0 730 -100 846
-447 1557 -1043 2141 -555 542 -1249 874 -2029 970 -117 15 -553 27 -630 18z
m-1458 -2444 c135 -13 218 -35 328 -87 175 -84 297 -237 336 -423 22 -103 15
-290 -14 -380 -56 -172 -198 -324 -356 -381 -20 -7 -36 -16 -36 -21 0 -4 115
-203 255 -442 140 -240 255 -438 255 -441 0 -3 -96 -5 -212 -5 l-213 0 -240
410 -240 410 -207 0 -208 0 0 -410 0 -410 -192 2 -193 3 -3 1080 c-1 594 0
1086 3 1093 5 15 783 17 937 2z m2448 -160 l0 -170 -448 0 c-499 0 -491 1
-539 -70 -22 -32 -23 -41 -23 -271 l0 -239 485 0 485 0 0 -170 0 -170 -486 0
-485 0 3 -248 3 -249 29 -37 c50 -67 46 -66 541 -66 l445 0 0 -171 0 -170
-492 3 c-537 4 -531 4 -653 66 -70 35 -175 144 -209 215 -54 116 -56 138 -56
822 0 693 2 709 60 826 64 125 214 236 350 258 30 5 265 9 523 10 l467 1 0
-170z m1251 160 c59 -6 142 -19 185 -30 108 -27 266 -107 336 -170 78 -69 151
-182 184 -283 25 -73 28 -97 28 -227 1 -162 -17 -244 -76 -349 -68 -119 -220
-247 -357 -301 -139 -54 -199 -62 -498 -67 l-283 -5 0 -369 0 -369 -190 0
-190 0 0 1090 0 1090 378 0 c207 0 425 -5 483 -10z"/>
<path d="M1270 3864 l0 -356 278 4 c266 4 279 5 339 28 170 68 246 186 230
358 -12 120 -77 216 -181 267 -91 45 -170 55 -428 55 l-238 0 0 -356z"/>
<path d="M5050 3824 l0 -386 228 5 c243 5 296 13 393 63 179 90 250 278 178
469 -24 65 -106 146 -183 180 -97 43 -187 55 -411 55 l-205 0 0 -386z"/>
</g>
</svg>
